<?xml version="1.0" encoding="UTF-8"?>
<svg version="1.1" viewBox="0 0 2048 1774" width="1280" height="1280" xmlns="http://www.w3.org/2000/svg">
<path transform="translate(1186,345)" d="m0 0h37l24 3 19 5 16 6 23 11 21 14 14 12 21 21 7 8 4 5 7-1 7-3 22-4 9-2h41l23 3 16 5 6-1 13-8h15l7 4 7 7 10 14 10 10 11 9 15 13 10 9 16 16 11 9 9 8 11 9 10 9 11 8 5 2 6-9 10-14 5-5 6-1 10 1h23l20 2h12l7 4 8 10 10 14 8 10 9 7 17 7 9 2 19 3 14 5 10 7 6 8 7 16 3 11-1 12-4 10-8 12-7 8-3 6v11l-5 39-6 61-5 41-2 22v12l13 53 8 38 2 15v11l-1 6v8l7 15 1 4v55l-3 7-8 3-10 3-2 2 2 5 3 23 10 98 11 102 16 126 10 88 4 49v48l-2 35-2 9-3 5 1 53 5 7 2 23 1 17 80 1 51 1v6h-242v-1l8-1 85-1 5-1-84 1-34 3h-254v-1l17-1 27-1 9-1h-21l-41 1v2h6v1h-526l1-6h194l261-1 52-1 1-5 4-10v-4l-5-4-13-6-13-4-25-7-18-8-16-10-15-14-9-10-11-17-8-16-6-14-8-22-7-22-12-36-11-25-6-11-8-9-8-7-1-5h15l31 4 28 7 19 7 8 5 2 6 2 27v30l5-1 4-8 9-23 4-13h5l10 8 12 11 15 14 7 8 9 11 9 14 8 14 7 16 9 27 6 31 3 20v11l11-3 16-11 3-3v-9l-3-18-2-6-14 2-1-8v-13l-1-10-2-5-9-3-9-7 2-9 5-6 6-18v-17l-3-29v-73l3-111 4-100 4-73 4-51 5-47 9-61 7-34 21-90 12-54 2-10v-25l-3-41-1-23v-13h-2l-2 4-8 10-21 21-16 12-15 9-16 8-18 7-30 8-19 3-14 1h-11l-26-2-22-4-25-7h-7l-9 1-16 8-8 2-15-7-5-4-6-10-1-8 3-10 4-10-4-6-10-9-7-8-6-7-4-9-10 1-31 6-24 2h-13l-23-2-20-4-24-8-16-8-16-9-19-14-13-11-9-9-11-14-10-14-9-15-7-14-8-22-6-27-2-15v-32l4-26 6-23 6-15 8-16 10-17 10-14 8-10 17-17 17-13 21-13 19-9 21-7 20-4zm527 799-7 18-66 198-3 15-4 75-3 51-4 79-3 40-6 46-5 19-1 10v21l3 6 5 6 1 11 1 27 5 1h168l12-1 2-1 5-16 7-10 1-3 4-2 15-7 14-5 10-7 5-6 1-3-1-16-4-25-3-8-7-9-7-21-7-15-3-11v-24l-8-30-11-38-20-70-19-67-46-161-15-54-4-12zm-107 624v1h9v-1zm11 0m-17 1m309 1v1h5v-1z" fill="#39384C"/>
<path transform="translate(7,260)" d="m0 0h14l31 5 25 6 18 7 11 5 2 4 4 54 1 7 6-2 4-15 9-26 3-3 6 2 11 9 7 7 8 7 8 8 9-1 15-6 19-5 17-3 10-1h34l23 3 22 6 21 8 16 8 16 10 13 10 12 11 6 5 7 8 10 12 12 18 12 23 6 14 6 20 4 21 1 10v30l-2 21-4 19-7 21-9 20-9 16-12 17-9 11-19 19-15 11-21 13-27 14-5 3-2 5 6 1 108 1h108l23 1 9 2 6 4 4 4 2 7 1 52-1 122-3 7-5 6-10 5-5 1-215 1h-36l-15-1-10-5-5-4-4-8-1-8-1-134h-14l-12-3-8-4-12-11-7-7-5-7-6-24-12-3-16-5-16-7-19-10-14-10-14-11-8-7v-2h-2l-7-8-8-9-10-14-11-19-10-21-8-25-4-20-2-20v-20l2-19 5-23 9-27 7-11-1-7-7-15-10-28-8-26-12-37-9-22-9-15-8-10-8-11z" fill="#FDA50D"/>
<path transform="translate(700)" d="m0 0h63l34 9 28 11 16 9 11 8 10 8 11 9 17 17 12 16 10 16 8 15 8 21 2 2h9l12-1v-69l1-40 4-10 9-10 2-1 12-1 59-1h169l31 1 12 3 8 7 2 6 1 34v116l-1 28-6 9-13 7-33 1-212 1-7 2-6 12-14 8-15 6-8 1h-10l-3 3-4 17-9 22-10 18-11 16-9 11-14 15-10 10-12 9-21 13-17 8-27 9-27 6-13 2h-35l-21-3-23-6-25-10-16-9-15-10-13-10-14-12-9-10-10-13-10-15-11-21-10-26-5-19-3-19-1-13v-16l2-20 4-21 8-26 10-22 11-17 10-14 8-10 9-10 10-9 18-13 15-10 17-9 25-9z" fill="#FCFCFC"/>
<path transform="translate(1186,345)" d="m0 0h37l24 3 19 5 16 6 23 11 21 14 14 12 21 21 7 8 4 6-8 5-24 12-14 9-14 11-15 14-15 16-12 16-8 13-8 15-8 22-4 16-2 16-1 17v28l2 22 4 19 9 24 12 24 3 9-15 4-22 4-24 2h-13l-23-2-20-4-24-8-16-8-16-9-19-14-13-11-9-9-11-14-10-14-9-15-7-14-8-22-6-27-2-15v-32l4-26 6-23 6-15 8-16 10-17 10-14 8-10 17-17 17-13 21-13 19-9 21-7 20-4z" fill="#FCFCFC"/>
<path transform="translate(1442,424)" d="m0 0h11l21 3 28 7 15 6 22 11 14 9 13 10 14 12 11 12 9 11 11 16 12 23 9 19-1 5-15 12-10 14-7 11-10 14-11 18-6 10-6 14-2 6-1 13 1 6-9 6-16 8-7 1-8-3-16-9-18-10-9-3h-22l-43 2-8 5-13 12-10 4-19 4-16 7-9 7-6 10-5 11-10 27-6 7-4 2-7-1-10-9-6-4-3-5-3-7-6-8-13-24-8-17-7-21-4-22-1-10v-44l3-22 5-19 6-15 11-21 11-16 9-11 12-14 15-15 17-13 20-11 29-12 36-7z" fill="#FCFCFC"/>
<path transform="translate(252,323)" d="m0 0h34l20 4 20 5 29 13 17 10 16 12 8 7 12 12 7 8 13 16 12 19 9 19 9 28 4 24v51l-4 23-5 14-7 18-15 30-9 12-8 10-10 10-7 6-2-1 13-13 3-5-2-6-9-19-10-14-9-7-17-8-22-5-4-2-2-6 3-12 2-19v-21l-2-23-6-31-6-20-8-20-6-10-8-10-9-8-14-8-15-6-13-3h-26l-14 4-13 8-10 8-1 2h-2l-2 4-7 10-7 14-4 13-3 19-1 16v15l2 21 4 17 5 13 11 17 8 10v2l5 2-3 3-25 9-10 6-8 7-9 16-4 10-5 17-4 10-2 2-5-1-7-7-6-9-8-10-13-18-8-13-9-19-4-9-2-7-2-14-3-16-2-12v-25l3-21 4-26 15-33 8-14 20-26 9-10 11-11 15-11 19-12 12-7 26-10 29-6z" fill="#FCFCFC"/>
<path transform="translate(331,728)" d="m0 0h216l23 1 9 2 6 4 4 4 2 7 1 52-1 122-3 7-5 6-10 5-5 1-215 1h-36l-15-1-10-5-5-4-4-8-1-8-1-135 13-5 10-5 10-8 7-9 6-16z" fill="#FCFCFC"/>
<path transform="translate(1038,8)" d="m0 0h169l31 1 12 3 8 7 2 6 1 34v116l-1 28-6 9-13 7-33 1-216 1 5-20v-10l-3-11-6-12-10-13-9-7-12-5-8-2 2-1v-69l1-40 4-10 9-10 2-1 12-1z" fill="#FCFCFC"/>
<path transform="translate(700)" d="m0 0h63l34 9 28 11 16 9 11 8 10 8 11 9 17 17 12 16 10 16 8 15 8 21 2 2h22l13 4 10 6 10 11 8 13 4 11 1 5v10l-5 19-5 5-5 10-14 8-15 6-8 1h-10l-3 3-4 17-9 22-10 18-11 16-9 11-14 15-10 10-12 9-21 13-17 8-27 9-27 6-13 2h-35l-21-3-23-6-25-10-16-9-15-10-13-10-2-4 4-1 6-18 8-20 8-16 11-12 9-6 8-3 17-2 10-5 11-10 12-8 3-1 28-1h37l16 8 11 7 16 8 10 2 15 2 11 4 9 6 11 11 11 19 4 10 1 7 7-8 3-6 6-7 6-12 5-7 4-12 7-16 4-10v-7l-10-8-11-7-10-10-7-14-2-7-1-15 2-12 4-10 8-11 7-7 16-10-1-6-8-16-6-11-9-14-14-19-14-15-12-12-20-14-18-11-16-7-21-7-22-4-14-1h-33l-21 2-25 6-25 10-17 9-14 9-16 13-13 13-8 10-9 11-14 25-9 19-9 31-3 20v37l3 22 4 15 10 29 12 22 10 13 11 12 12 16 4 5v2l-6-2-8-7-9-11-8-10-10-15-11-21-10-26-5-19-3-19-1-13v-16l2-20 4-21 8-26 10-22 11-17 10-14 8-10 9-10 10-9 18-13 15-10 17-9 25-9z" fill="#FDA50D"/>
<path transform="translate(1459,675)" d="m0 0h22l13 5 16 9 14 8 8 3 7-1 16-8 10-6 8 11 8 7 15 15 7 8 9 11v5l-2 4v14h-1v-13h-2l-2 4-8 10-21 21-16 12-15 9-16 8-18 7-30 8-19 3-14 1h-11l-26-2-22-4-25-7h-7l-9 1-16 8-8 2-15-7-5-4-6-10-1-8 3-10 4-10-4-6-10-9 1-2 8 7 6 4 7-1 5-4 4-8 10-27 7-13 5-6 11-7 12-5 22-5 8-4 14-13 6-3z" fill="#9A6268"/>
<path transform="translate(228,396)" d="m0 0h26l15 4 13 5 11 6 10 8 9 10 6 10 6 12 9 27 6 29 2 14 1 15v21l-2 19-3 14-1 3-22-10-7-4-19-4h-22l-22 2-18 4-14 6-11 6-5-2-5-5-10-14-8-13-6-18-3-17-1-14v-15l2-24 4-18 5-12 5-10 9-12h2l2-4 13-10 12-6z" fill="#3A384C"/>
<path transform="translate(1316,1500)" d="m0 0h15l31 4 28 7 19 7 8 5 2 6 2 27v30l5-1 4-8 9-23 4-13h5l10 8 12 11 15 14 7 8 9 11 9 14 8 14 7 16 9 27 6 31 3 20v10l-11 7-9 6-4 5-4 3-8-5-12-5-35-10-18-8-16-10-15-14-9-10-11-17-8-16-6-14-8-22-7-22-12-36-11-25-6-11-8-9-8-7z" fill="#FCFCFC"/>
<path transform="translate(1719,314)" d="m0 0h18l13 4 13 9 5 4 14 8 10 8 10 15 8 19 3 15v23l-3 16-6 15-8 13-8 9-12 9-10 6-12 5-14 4-13 2h-10l-12-2-12-5-11-6-10-9-6-7-8-15-4-12-1-15 2-16 4-13v-8l-11 1-10-2-7-4-7-8-4-7-1-7 4-10 8-11 7-8 20-8h8l3 1h9l26-10z" fill="#39384C"/>
<path transform="translate(1431,497)" d="m0 0h25l15 3 14 7 13 11 9 11 7 14 4 14 2 12v33l-2 14-5 12-6 8-10 5-5 1h-25l-5-1 4-4 16-14 9-13 6-12 2-12h-13l-11 2-7 1h-28l-20-2-10-4-3-5-2-7-4 2-6 11-9 6v11l7 14 8 9 15 11 11 7v1l-28 2h-12l-19-1-16-4-6-4-5-6-3-7v-14l6-21 12-36 5-14 6-11 5-6 10-8 15-8 15-5z" fill="#3B394C"/>
<path transform="translate(1867,1657)" d="m0 0h14l26 2 4 2-3 5 1 53 5 7 2 23 1 17 80 1 51 1v6h-242v-1l8-1 85-1 5-1-84 1-34 3h-254v-1l17-1 27-1 9-1h-21l-41 1v2h6v1h-526l1-6h194l261-1 43-1 11-1 16 1h265l14-1 1-7 3-9 7-10 5-5 16-8 14-5 10-7 4-5 1-3-1-16-2-16zm-261 111v1h9v-1zm11 0m-17 1m309 1v1h5v-1z" fill="#3A384C"/>
<path transform="translate(700)" d="m0 0h63l34 9 28 11 16 9 11 8 10 8 11 9 17 17 12 16 10 16 8 15 8 21 2 2h22l13 4 10 6 10 11 8 13 4 11 1 5v10l-5 19-5 5-5 10-14 8-15 6-8 1h-10l-3 3-4 17-9 22-10 18-11 16-9 11-5 4 2-4 7-9 3-5 5-6 6-12 5-7 4-12 7-16 4-10v-7l-10-8-11-7-10-10-7-14-2-7-1-15 2-12 4-10 8-11 7-7 16-10-1-6-8-16-6-11-9-14-14-19-14-15-12-12-20-14-18-11-16-7-21-7-22-4-14-1h-33l-21 2-25 6-25 10-17 9-14 9-16 13-13 13-8 10-9 11-14 25-9 19-9 31-3 20v37l3 22 4 15 10 29 12 22 10 13 11 12 12 16 4 5v2l-6-2-8-7-9-11-8-10-10-15-11-21-10-26-5-19-3-19-1-13v-16l2-20 4-21 8-26 10-22 11-17 10-14 8-10 9-10 10-9 18-13 15-10 17-9 25-9z" fill="#3C394D"/>
<path transform="translate(7,260)" d="m0 0h14l31 5 25 6 18 7 11 5 2 4 4 54 1 7 6-2 4-15 9-26 3-3 6 2 11 9 7 7 8 7 8 8-1 3-14 8-23 16-10 9-8 7-14 14-9 11-12 17-4 7-3-3-7-16-10-29-8-25-12-36-8-20-9-15-8-10-8-11z" fill="#FCFCFC"/>
<path transform="translate(1459,675)" d="m0 0h22l13 5 16 9 14 8 8 3 4 2-6 4-8 5-32 15-20 8-38 12-27 8-35 9-42 10-18 2v-2l6-4 4-7 9-24 8-17 6-7 11-7 12-5 22-5 8-4 14-13 6-3z" fill="#FDA40D"/>
<path transform="translate(740,65)" d="m0 0 15 1 13 5 29 14 7 7 1 2v9l-1 6 5 10 7 7 3 5 1 4v16l-8 20-3 4h-3l-3-5-3-14-6-12-7-2-15 1-40 9-26 6-13 5-6 5-2 6v14l-3-3-6-10-7-17-4-19v-12l2-15 5-12 8-7 16-10 11-7 14-7 12-3z" fill="#3B394C"/>
<path transform="translate(272,670)" d="m0 0 10 1 13 4 10 6 12 11 9 14 5 10v2l-5 4-1 4 6 1-3 9-6 16-7 9-8 7-8 5-15 6-17 1-12-3-8-4-12-11-7-7-5-7-6-24-4-3 6-9 8-15 12-13 9-7 11-5z" fill="#3A384C"/>
<path transform="translate(780,141)" d="m0 0h7l7 2 6 10 3 11 2 8 1 3 3 1-6 11-10 15-7 8-15 10-14 6-7 1h-19l-13-5-11-7-10-9-12-16-1-7v-9l3-7 6-5 13-5 30-7 36-8z" fill="#FEB8B4"/>
<path transform="translate(208,463)" d="m0 0 30 12 20 4 8-2 1-5 3-3 3 1 1 9 5 1 5 2 14 2 10 3 5 6 1 2v8l-5 13-6 10-8 8-14 7-14 4-13 1-16-3-13-7-11-9-7-10-5-13-2-10v-13l4-14z" fill="#9A6269"/>
<path transform="translate(1511,1765)" d="m0 0 18 1h265l13-1 7 1h98l5-1 4 1 76 1 51 1v6h-242v-1l8-1 85-1 5-1-84 1-34 3h-254v-1l17-1 27-1 9-1h-21l-41 1v2h6v1h-526l1-6h194l261-1 43-1zm95 3v1h9v-1zm11 0m-17 1m309 1v1h5v-1z" fill="#FCFCFC"/>
<path transform="translate(1601,1678)" d="m0 0 10 1v22l1 15 3 6 5 6 1 11v27l-12 1h-80l-16-1-2-1 3-10 3-5-1-6 5-5 9-7 10-6 3-1 9-1 11-7 9-7 1-1v-9l-1-8 1-13z" fill="#3C394C"/>
<path transform="translate(1516,419)" d="m0 0h15l7 4 7 7 10 14 10 10 11 9 15 13 10 9 16 16 11 9 9 8 11 9 10 9 11 8 4 3-16 9-19 8h-4l-9-17-4-9h-2l-10-19-11-15-12-14-9-10-11-9-17-13-18-10-23-11-13-4-26-6-16-2h-11l-26 2-36 7-24 10-16 8-12 7-11 9-10 9-10 10-9 11-10 12-11 17-12 23-7 21-4 21-1 10v44l3 23 5 19 8 20 15 29 6 8 4 6 2 5v3l-7-7-6-12-5-2-7-16-11-23-7-21-3-15-2-22v-28l2-26 3-16 8-24 8-16 6-11 9-13 11-13 15-16 14-13 16-12 18-10 22-11 9-3 7-3 22-4 9-2h41l23 3 16 5 6-1z" fill="#9C6367"/>
<path transform="translate(1659,398)" d="m0 0 5 1 13 7 14 10 7 1 2-1 9 1 13 7 8 10 2 9v13l-4 16-8 16-8 9-10-2-17-8-9-7-8-8-8-14-6-16-1-15 2-16z" fill="#9A6268"/>
<path transform="translate(1403,570)" d="m0 0 3 1 3 10 7 4 13 2 11 1h28l15-2 3-1h13l1 4-3 11-7 13-9 12-13 12-9 5-3 1h-28l-12-7-12-9-9-8-7-11-3-7v-11l10-7 5-10z" fill="#FEB8B5"/>
<path transform="translate(245,319)" d="m0 0h34l23 3 22 6 21 8 16 8 16 10 13 10 12 11 6 5 7 8 10 12 12 18 12 23 6 14 6 20 4 21 1 10v30l-2 21-4 19-7 21-9 20-9 16-12 17-9 11-19 19-15 11-21 13-25 13-2-1 6-4 16-8 15-9 12-9 13-11 14-12 8-8 12-16 5-8 8-16 6-14 6-16 4-11 4-23v-51l-4-24-11-33-11-21-12-17-11-13-14-15-8-8-17-12-16-10-26-12-12-4-26-6-7-1h-34l-21 2-29 6-28 11-20 12-12 8-14 11-15 15-13 17-11 15-10 19-11 25-5 32-2 15v25l4 25 2 8 2 13 4 11 8 16 9 16 12 16 11 14 7 10 5 5v2l4 1 4 6 9 7 1 3-4-2-13-10-8-7v-2h-2l-7-8-8-9-10-14-11-19-10-21-8-25-4-20-2-20v-20l2-19 5-23 9-27 7-11v-6l10-16 10-13 14-15 12-12 11-9 15-11 19-12 5-3 9-2 15-6 19-5 17-3z" fill="#4B4052"/>
<path transform="translate(1038,8)" d="m0 0h169l10 2-2 5-13 8-8 2-20 2-27 1h-63l-37-1-21-2-15-3-9-6-1-5 3-2z" fill="#E4E3E3"/>
<path transform="translate(1012,83)" d="m0 0h181l6 1v7l-3 5-2 1-27 2-116 1-3 1 1 7 1 1v8l-1 2-9 1h-28z" fill="#FEA50D"/>
<path transform="translate(343,803)" d="m0 0h178l8 1v9l-2 3-10 1-32 1-101 1-5 2v6l2 3v9l-1 1h-37z" fill="#FEA50D"/>
<path transform="translate(1566,775)" d="m0 0 1 2-3 7-2 3-7 1-3 1v2l-4 2-2 3-11 4-4 3v7l-20 8-30 8-19 3-14 1h-11l-26-2-22-4-8-2 1-3 21-8 10-2 61-7 41-7 15-4 20-8z" fill="#FDA40D"/>
<path transform="translate(1459,1767)" d="m0 0h23v1l-25 2-4 1 1 3h-451l1-6h194z" fill="#FDFDFD"/>
<path transform="translate(1867,1657)" d="m0 0h14l26 2 4 2-3 5 1 53 2 3-45-9 3-7-1-16-2-16z" fill="#9B6367"/>
<path transform="translate(1386,426)" d="m0 0h10v1l-9 2-5 2-2 3-24 10-16 8-12 7-11 9-10 9-10 10-9 11-10 12-11 17-12 23-7 21-4 21-1 10v44l3 23 5 19 8 20 15 29 6 8 4 6 2 5v3l-7-7-6-12-5-2-7-16-11-23-7-21-3-15-2-22v-28l2-26 3-16 8-24 8-16 6-11 9-13 11-13 15-16 14-13 16-12 18-10 22-11 9-3z" fill="#4E4152"/>
<path transform="translate(1806,1765)" d="m0 0 8 1h98l5-1 4 1 76 1 51 1v6h-242v-1l8-1 85-1 5-1-84 1-9 1h-17l-1-2 6-2v-2zm103 5v1h5v-1z" fill="#FCFCFC"/>
<path transform="translate(1601,1678)" d="m0 0 10 1v22l1 15 1 4-17-4-24-5 1-2v-9l-1-8 1-13z" fill="#9A6268"/>
<path transform="translate(103,397)" d="m0 0 2 3-12 15-9 15-8 17-8 18-5 32-2 15v25l4 25 2 8 2 13 4 11 8 16 9 16 12 16 11 14 7 10 5 5v2l4 1 4 6 9 7 1 3-4-2-13-10-8-7v-2h-2l-7-8-8-9-10-14-11-19-10-21-8-25-4-20-2-20v-20l2-19 5-23 9-27 7-11v-6l10-16 10-13h3z" fill="#9A6465"/>
<path transform="translate(618,35)" d="m0 0m-1 1 2 2-9 6-13 11-12 12-8 10-9 11-14 25-9 19-9 31-3 20v37l3 22 4 15 10 29 12 22 10 13 11 12 12 16 4 5v2l-6-2-8-7-9-11-8-10-10-15-11-21-10-26-5-19-3-19-1-13v-16l2-20 4-21 8-26 10-22 11-17 10-14 8-10 9-10 10-9z" fill="#4A4052"/>
<path transform="translate(1511,1765)" d="m0 0 18 1h97l9 1 2 1v3l-7 1v2h-98v-1l17-1 27-1 9-1h-21l-41 1v2h6v1h-75v-2l-3-1 9-2 22-2 20-1zm95 3v1h9v-1z" fill="#E4E3E3"/>
<path transform="translate(1058,129)" d="m0 0h28l12 1 2 5v6l-10 1h-72l-6-2v-8l4-1z" fill="#FEA50D"/>
<path transform="translate(378,849)" d="m0 0h45l6 1 1 2v8l-5 1-25 1h-42l-12-1-3-2v-7l1-1z" fill="#FEA50D"/>
<path transform="translate(343,803)" d="m0 0h1v13l110 1v1l-70 1-5 2v6l2 3v9l-1 1h-37z" fill="#E7DEDE"/>
<path transform="translate(1012,83)" d="m0 0h1l1 14 153 1v1l-116 1-3 1 1 7 1 1v8l-1 2-9 1h-28z" fill="#E4E1E1"/>
<path transform="translate(355,730)" d="m0 0h18l17 2 38 2h52l30 2 6 1v2l-20 2h-16l-63-2h-28l-31-3-7-3 1-2z" fill="#E4E3E3"/>
<path transform="translate(1240,587)" d="m0 0h1l1 17 1 42 3 23 5 19 8 20 15 29 6 8 4 6 2 5v3l-7-7-6-12-5-2-7-16-11-23-7-21-3-15-2-22v-28z" fill="#4F4152"/>
<path transform="translate(884,341)" d="m0 0v3l-18 18-12 9-21 13-17 8-27 9-27 6-13 2h-35l-21-3-23-6-25-10-9-5v-1h5l5 3v2l8 1 5 1v2l4 2 11 3 10 2 2 1 5 1 19 3 12 1h21l19-2 12-2 13-3 17-5 12-6 8-2 14-8 16-11 13-11 8-7z" fill="#92727B"/>
<path transform="translate(1408,581)" d="m0 0 8 4 13 2 11 1h28l15-2 3-1h13l1 4-3 11-7 13-9 12-13 12-5 2 5-6 8-7 3-4 4-12 7-14v-5l-23 1-10 1-26-2-21-5-2-2z" fill="#FEA50D"/>
<path transform="translate(544,271)" d="m0 0 2 4 5 12 12 23 11 13 9 10 12 16 4 5v2l-6-2-8-7-9-11-8-10-10-15-11-21-2-6h2l-3-8z" fill="#644F56"/>
<path transform="translate(1015,108)" d="m0 0 32 1 2 2v8l-9 1h-27v-11z" fill="#FEA50D"/>
<path transform="translate(1806,1765)" d="m0 0 8 1h102l-3 1v2l-22 1-71 1-9 1h-17l-1-2 6-2v-2z" fill="#E4E3E3"/>
<path transform="translate(346,828)" d="m0 0 31 1 3 2v7l-1 1-10 1h-24l-1-1v-10z" fill="#FEA50D"/>
<path transform="translate(103,397)" d="m0 0 2 3-12 15-9 15-8 17-8 18-2 15-3 4h-2l1-9 9-29 8-13v-6l10-16 10-13h3z" fill="#4B4051"/>
<path transform="translate(64,482)" d="m0 0 1 2-3 18-1 10v25l4 25 1 5-3-1v7l-2-4-4-23-1-13v-20l2-19 2-10z" fill="#554454"/>
<path transform="translate(1355,641)" d="m0 0 13 2 19 1h12l29-2h28l3-1 33 1-3 2h-19l-56 3h-44l-9-2-6-3z" fill="#E4E3E3"/>
<path transform="translate(928,260)" d="m0 0h3l-2 10-9 22-10 18-11 16-9 11-5 4 2-4 7-9 3-5 5-6 6-12 5-7 4-12 7-16z" fill="#483E50"/>
<path transform="translate(431,634)" d="m0 0h2l-2 5-12 16-9 10-15 15-15 11-21 13-25 13-2-1 6-4 16-8 15-9 12-9 13-11 14-12 8-8 12-16z" fill="#483E50"/>
<path transform="translate(1915,1769)" d="m0 0 11 2 2 3h-122v-1l8-1 101-1z" fill="#E4E3E3"/>
<path transform="translate(1392,823)" d="m0 0h13l15 1v1h15l15 1 31-1v1l-19 3-14 1h-11l-26-2-18-3z" fill="#524253"/>
<path transform="translate(1397,621)" d="m0 0 8 6 13 9 9 6v1l-28 2h-12l-19-1-13-3 4-1 19 2h12l22-3h6l-4-2v-2l-5-2-10-8z" fill="#9B6367"/>
<path transform="translate(636,384)" d="m0 0h5l5 3v2l8 1 5 1v2l4 2 11 3 10 2 2 1 5 1 19 3 10 2v1h-14l-18-3-24-7-21-9-7-4z" fill="#584656"/>
<path transform="translate(63,566)" d="m0 0 3 1 3 16 4 11 3 5 2 8 5 12 4 6-1 4-6-10-10-21-7-21z" fill="#7F5761"/>
<path transform="translate(618,35)" d="m0 0m-1 1 2 2-9 6-13 11-12 12-8 10-9 11-3 6h-3l2-4 9-13 8-10 9-10 10-9z" fill="#4E4152"/>
<path transform="translate(458,576)" d="m0 0 1 3-6 18-9 20-9 16h-3l8-16 7-16 6-16 4-8z" fill="#463D50"/>
<path transform="translate(59,512)" d="m0 0h1l1 25 4 25 1 5-3-1v7l-2-4-4-23 1-21z" fill="#9C676E"/>
<path transform="translate(1415,420)" d="m0 0h2l-1 7-31 6h-4l1-3 11-4v-1l18-4z" fill="#9E6970"/>
<path transform="translate(1425,420)" d="m0 0h33l16 2-1 3h-8l-5-1h-36l-9 1 2-1v-3z" fill="#443D4F"/>
<path transform="translate(884,341)" d="m0 0v3l-18 18-12 9-21 13-6 3h-2v-2l11-6 11-7 12-9 14-12z" fill="#4B4051"/>
<path transform="translate(1424,423)" d="m0 0h36l5 1h8l1-1h7l13 4v1l-9-1-8-2 4 2 5 2-4 1-19-4-10-1h-11l-26 1 2-2z" fill="#9A6269"/>
<path transform="translate(573,331)" d="m0 0 6 2 10 8 7 9 3 4v2l-6-2-8-7-9-11z" fill="#4B4050"/>
<path transform="translate(1490,582)" d="m0 0h7l4 3-1 10-2 3 1-12h-13l-11 2-7 1h-28l-11-1v-1h27l21-2z" fill="#9A6269"/>
<path transform="translate(1240,587)" d="m0 0h1l1 17v40h-1l-1-25v35h-1l-1-13v-28z" fill="#996168"/>
<path transform="translate(1477,424)" d="m0 0 12 3 15 2 10 8-4 1-15-5-9-2v-2l-9-2z" fill="#4B4051"/>
<path transform="translate(562,310)" d="m0 0 5 5 10 11 9 11-2 2-5-5-8-4-6-8z" fill="#9F6661"/>
<path transform="translate(60,512)" d="m0 0h1l1 20 7 44 6 18 1 5-4-5-5-15-2-14-3-16-2-12z" fill="#E4E3E3"/>
<path transform="translate(1028,128)" d="m0 0h59l8 1v1h-37l-44 2v-2z" fill="#EBD7D7"/>
<path transform="translate(355,848)" d="m0 0h64v1l-41 1-34 2-1 5h-1v-6l4-2z" fill="#E8DBDB"/>
<path transform="translate(1276,740)" d="m0 0 4 2 7 8 9 12 3 5 3 4-4-2-7-6-4-3-3-5-3-7-5-6z" fill="#DFDEDE"/>
<path transform="translate(1403,570)" d="m0 0 3 1 1 7-2-3v-2l-4 3-3 9-6 5-6 1 1 9 5 11-1 2-6-12v-11l10-7 5-10z" fill="#FEA50D"/>
<path transform="translate(1392,823)" d="m0 0h13l15 1v1h15l12 1v1l-36 1-18-3z" fill="#9A6468"/>
<path transform="translate(1245,564)" d="m0 0h1l-1 9 1 1-1 11-2 17-2 2v-24z" fill="#6D4E5B"/>
<path transform="translate(423,644)" d="m0 0v3l-9 11-10 10-7 6-2-1 13-13 3-5v-3l6-2 5-5z" fill="#ECE8E8"/>
<path transform="translate(636,384)" d="m0 0h5l5 3v2l8 1 5 1v2l4 2 11 3 2 1v2l-12-3-21-9-7-4z" fill="#988891"/>
<path transform="translate(103,397)" d="m0 0 2 3-10 13-5-2 7-11 3-2h2z" fill="#905D66"/>
<path transform="translate(1476,628)" d="m0 0 2 1-8 8 5 2h2v2h15v1h-25l-5-1 4-4 8-7z" fill="#915E66"/>
<path transform="translate(762,223)" d="m0 0 3 1-16 6h-13l-8-3 3-1h19l10-2z" fill="#E4E3E3"/>
<path transform="translate(928,253)" d="m0 0h1v7l-8 19-5 13-3 7-1-3 2-8 9-19z" fill="#E4E3E3"/>
<path transform="translate(72,600)" d="m0 0h3l8 19 4 6-1 4-6-10-8-16z" fill="#453E51"/>
<path transform="translate(372,693)" d="m0 0m-2 1h2l-1 3-18 10-19 10-2-1 6-4 16-8 15-9z" fill="#5B4656"/>
<path transform="translate(1474,423)" d="m0 0h7l13 4v1l-9-1-8-2 4 2 5 2-4 1-13-3v-2z" fill="#9C6669"/>
<path transform="translate(824,386)" d="m0 0 1 2-20 8-12 4-4-2 15-4 12-6z" fill="#9E6F75"/>
<path transform="translate(706,157)" d="m0 0 4 1-12 5-6 7h-6l2-4 5-4z" fill="#FEA50D"/>
<path transform="translate(123,671)" d="m0 0h2v2l4 1 4 6 9 7 1 3-4-2-13-10-3-5z" fill="#574757"/>
<path transform="translate(95,642)" d="m0 0h3l5 5 3 4 3 9-5-4-9-12z" fill="#463D50"/>
<path transform="translate(66,464)" d="m0 0h1v9l-2 9-4 2 1-9 3-10z" fill="#4B3F51"/>
<path transform="translate(869,51)" d="m0 0 7 6 14 14 5 7-2 2-3-3-4-7-17-17z" fill="#9F6C72"/>
<path transform="translate(713,406)" d="m0 0h24l5 1v2h-28z" fill="#7C5560"/>
<path transform="translate(928,260)" d="m0 0 1 3-5 15-4 7-3 7-1-4 8-18z" fill="#9A6269"/>
<path transform="translate(1390,427)" d="m0 0 8 1-1 3-16 2 1-3z" fill="#855962"/>
<path transform="translate(903,315)" d="m0 0 1 4-12 16-7 6 2-4 7-9 3-5 5-6z" fill="#684C5A"/>
<path transform="translate(1603,508)" d="m0 0 4 3 12 21 1 4h-2l-9-17-6-8z" fill="#5D4757"/>
<path transform="translate(914,299)" d="m0 0 1 2-7 12-4 4 1-7 6-9z" fill="#4F4152"/>
<path transform="translate(1276,742)" d="m0 0 5 4 3 5 2 5v3l-7-7-3-5z" fill="#74515D"/>
<path transform="translate(72,445)" d="m0 0 1 4 2-1-2 6-5 11-2-1 3-11z" fill="#7B6B77"/>
<path transform="translate(79,433)" d="m0 0 3 1-7 14-3 2v-6z" fill="#544354"/>
<path transform="translate(431,634)" d="m0 0h2l-2 5-12 16-3 3v-3l12-16z" fill="#514253"/>
<path transform="translate(848,371)" d="m0 0 2 1-5 5-18 10h-2v-2l11-6 11-7z" fill="#624958"/>
<path transform="translate(600,356)" d="m0 0 5 1 8 12-4-2-9-7-1-3z" fill="#584555"/>
<path transform="translate(160,701)" d="m0 0 7 2 18 9 1 2-9-3-17-9z" fill="#A98A90"/>
<path transform="translate(1014,106)" d="m0 0 32 2v1h-33z" fill="#FFB9B8"/>
<path transform="translate(189,712)" d="m0 0h3v2l4 1 9 4-1 2-17-6 2-1z" fill="#5B4656"/>
<path transform="translate(1403,573)" d="m0 0h2l1 2v8l-4 1-1-7z" fill="#E8DCDC"/>
<path transform="translate(889,180)" d="m0 0h1l1 6-1 8-1 13h-1l-1-15z" fill="#9A6269"/>
<path transform="translate(884,341)" d="m0 0v3l-17 17v-3l11-12z" fill="#4D4052"/>
<path transform="translate(939,141)" d="m0 0h13l13 4-1 3v-2l-8-1-5-2-12-1z" fill="#A06A6C"/>
<path transform="translate(76,602)" d="m0 0 3 4 8 16-4-2-5-10-2-5z" fill="#A4685F"/>
<path transform="translate(903,313)" d="m0 0 1 2-4 6-4 4-2 5-1-3 5-10 3-1z" fill="#E4E3E3"/>
<path transform="translate(930,260)" d="m0 0 1 3-6 17-2-2 6-17z" fill="#4F4152"/>
<path transform="translate(1290,762)" d="m0 0 5 3 8 7 2 1v3l-4-2-11-10z" fill="#604957"/>
<path transform="translate(659,393)" d="m0 0 4 2 11 3 2 1v2l-12-3-5-2z" fill="#BFA1A4"/>
<path transform="translate(743,406)" d="m0 0h14l-1 2-14 1z" fill="#745763"/>
<path transform="translate(1397,621)" d="m0 0 8 6 9 7-2 1-12-9-3-3z" fill="#9A6269"/>
<path transform="translate(544,271)" d="m0 0 2 4 5 12-1 2-1-1-2 2-2-6h2l-3-8z" fill="#9F7072"/>
<path transform="translate(713,406)" d="m0 0h9l7 1-3 2h-12z" fill="#9E6D74"/>
<path transform="translate(787,399)" d="m0 0 4 1-14 4h-5l4-3z" fill="#634A58"/>
<path transform="translate(132,680)" d="m0 0 6 4 5 5h-3l-9-7z" fill="#745561"/>
<path transform="translate(1407,574)" d="m0 0 2 3 5 5 6 3-4 1-8-5z" fill="#9A6269"/>
<path transform="translate(406,662)" d="m0 0 2 2-11 10-2-1z" fill="#E7DDDC"/>
<path transform="translate(64,482)" d="m0 0 1 2-1 7-1-3h-2l-2 4 1-8z" fill="#B6979C"/>
<path transform="translate(675,399)" d="m0 0h7l3 2v2l-8-1z" fill="#604957"/>
<path transform="translate(1603,508)" d="m0 0 4 3 4 7 1 3h-2l-7-10z" fill="#534353"/>
<path transform="translate(1804,1773)" d="m0 0" fill="#E4E3E3"/>
<path transform="translate(1797,1773)" d="m0 0" fill="#E4E3E3"/>
</svg>
